<?xml version="1.0" standalone="no"?><!DOCTYPE svg PUBLIC "-//W3C//DTD SVG 1.1//EN" "http://www.w3.org/Graphics/SVG/1.1/DTD/svg11.dtd"><svg t="1706108026769" class="icon" viewBox="0 0 1024 1024" version="1.1" xmlns="http://www.w3.org/2000/svg" p-id="4243" xmlns:xlink="http://www.w3.org/1999/xlink" width="200" height="200"><path d="M918.882462 488.723692a35.564308 35.564308 0 0 1-30.680616-17.486769c-77.508923-132.608-221.617231-214.961231-376.201846-214.961231-154.545231 0-298.653538 82.313846-376.201846 214.961231a35.564308 35.564308 0 0 1-48.324923 12.8 34.816 34.816 0 0 1-12.918154-47.812923C164.627692 281.954462 332.327385 186.171077 512 186.171077c179.712 0 347.372308 95.783385 437.444923 250.052923a34.816 34.816 0 0 1-12.918154 47.812923 35.84 35.84 0 0 1-17.644307 4.686769m-406.843077 349.105231c-179.712 0-347.411692-95.783385-437.484308-250.013538A34.816 34.816 0 0 1 87.512615 539.963077c16.935385-9.649231 38.596923-3.938462 48.324923 12.8 77.548308 132.647385 221.656615 215.000615 376.201847 215.000615 154.584615 0 298.771692-82.353231 376.201846-215.000615a35.564308 35.564308 0 0 1 48.324923-12.8c16.935385 9.649231 22.646154 31.113846 12.918154 47.852308-90.033231 154.230154-257.732923 250.013538-437.444923 250.013538" fill="#CCCCCC" p-id="4244"></path><path d="M511.921231 391.364923a127.094154 127.094154 0 0 0-126.976 126.936615 127.015385 127.015385 0 0 0 126.976 126.936616 127.054769 127.054769 0 0 0 126.936615-126.936616 127.133538 127.133538 0 0 0-126.936615-126.936615m0 328.270769a201.531077 201.531077 0 0 1-201.334154-201.334154 201.609846 201.609846 0 0 1 201.334154-201.294769 201.609846 201.609846 0 0 1 201.294769 201.294769 201.531077 201.531077 0 0 1-201.294769 201.334154" fill="#CCCCCC" p-id="4245"></path></svg>