<?xml version="1.0" standalone="no"?><!DOCTYPE svg PUBLIC "-//W3C//DTD SVG 1.1//EN" "http://www.w3.org/Graphics/SVG/1.1/DTD/svg11.dtd"><svg t="1706108821990" class="icon" viewBox="0 0 1024 1024" version="1.1" xmlns="http://www.w3.org/2000/svg" p-id="2405" xmlns:xlink="http://www.w3.org/1999/xlink" width="200" height="200"><path d="M329.12 411.385c1.027 4.492 2.083 8.985 3.081 13.493 3.212 14.516 6.481 29.008 11.519 43.042 6.56 18.271 14.425 35.893 25.245 52.091 4.993 7.475 10.617 14.427 17.214 20.555 1.25 1.161 2.362 2.567 4.45 3.194-0.47-2.769-0.876-5.27-1.321-7.765-2.078-11.645-3.847-23.335-5.417-35.06-1.953-14.585-3.47-29.219-4.312-43.898-1.007-17.562-1.777-35.142-0.721-52.749 0.421-7.022 0.638-14.055 1.277-21.066 2.452-26.868 7.435-53.177 17.359-78.379 7.444-18.903 17.423-36.303 31.065-51.478 20.688-23.011 46.424-37.305 76.467-44.012 10.759-2.402 21.617-4.362 32.431-6.52 0.47-0.094 0.947-0.155 1.424-0.206 1.219-0.13 1.726 0.281 1.695 1.639-0.098 4.478-0.107 8.965-0.433 13.428-0.957 13.1-0.998 26.212-0.682 39.329 0.375 15.517 1.779 30.953 3.693 46.355 2.646 21.299 6.782 42.286 12.766 62.896 5.633 19.403 12.901 38.149 22.801 55.818 6.196 11.061 13.325 21.461 21.732 30.965 1.13 1.276 2.37 2.454 3.53 3.647 1.24-0.897 0.82-1.923 0.811-2.787-0.09-8.001 0-15.985 0.938-23.953 3.439-29.243 14.493-54.842 35.962-75.483 6.485-6.235 13.622-11.646 21.339-16.244 9.479-5.647 19.063-11.116 28.605-16.652 0.541-0.314 1.132-0.542 1.696-0.81 1.173 0.952 1.28 2.256 1.574 3.434 1.736 6.979 3.514 13.949 5.115 20.959 2.257 9.871 5.916 19.234 9.984 28.46 6.588 14.938 13.937 29.502 22.179 43.585 8.522 14.564 15.105 29.955 20.54 45.88 5.435 15.922 9.525 32.189 12.06 48.815 2.05 13.449 3.265 26.994 2.923 40.62-0.925 36.856-8.258 72.382-23.046 106.188-23.855 54.534-60.948 97.606-112.333 128.01-26.281 15.549-54.594 25.718-84.67 30.947-19.638 3.414-39.461 4.334-59.288 2.841-57.75-4.348-108.508-25.767-151.901-64.066-43.293-38.212-71.089-85.879-84.62-141.914-3.192-13.221-5.337-26.64-6.294-40.228-0.18-2.551-0.466-5.094-0.645-7.646-0.853-12.182 0.267-24.271 1.687-36.353 1.57-13.364 4.04-26.544 7.896-39.442 3.354-11.222 7.77-21.997 13.85-32.052 8.277-13.688 19.073-24.774 33.187-32.52 7.569-4.154 15.036-8.493 22.573-12.706 1.513-0.84 2.904-2.005 5.015-2.202z" fill="#FF5659" p-id="2406"></path><path d="M489.619 268.588c0.237 2.083 0.606 4.258 0.712 6.445 0.641 13.265 2.125 26.441 3.896 39.597 1.962 14.584 4.55 29.05 7.873 43.379 6.674 28.774 16.068 56.586 29.869 82.784 10.576 20.074 23.493 38.465 39.644 54.509 17.723 17.607 38.161 31.013 61.453 40.065 16.242 6.313 32.478 12.644 48.719 18.959 1.171 0.455 2.364 0.853 3.935 1.417 0.017-1.965-0.803-3.342-1.361-4.727-5.678-14.087-11.293-28.201-17.152-42.212-5.653-13.519-9.26-27.563-11.282-42.023-1.198-8.567-1.621-17.213-1.02-25.852 0.852-12.235 3.422-24.048 9.461-34.894 0.837-1.502 1.474-3.179 2.898-4.19 1.219 0.454 1.354 1.5 1.727 2.302 6.809 14.664 14.517 28.855 22.561 42.865 3.757 6.543 6.747 13.425 9.528 20.407 7.132 17.898 12.063 36.4 14.828 55.462 1.31 9.026 2.197 18.172 1.931 27.242-0.286 9.708-0.954 19.446-2.364 29.123-2.502 17.165-6.607 33.891-12.842 50.058-17.371 45.05-45.664 81.51-85.988 108.326-24.174 16.076-50.688 26.367-79.336 31.093-15.386 2.538-30.914 3.113-46.406 1.872-45.283-3.626-85.228-20.388-119.578-50.102-35.173-30.427-58.139-68.494-69.805-113.434-2.976-11.465-4.785-23.133-6.047-34.922-1.339-12.512-0.647-24.885 0.952-37.298 1.145-8.895 2.713-17.688 5.029-26.348 0.165-0.617 0.265-1.271 0.543-1.834 0.474-0.96 0.024-2.647 1.253-2.851 1.477-0.245 1.313 1.534 1.745 2.424 2.72 5.61 5.188 11.346 8.002 16.907 7.755 15.326 16.881 29.774 28.19 42.758 11.035 12.67 23.682 23.342 38.869 30.774 9.992 4.891 20.471 8.084 31.565 9.351a99.69 99.69 0 0 0 13.4 0.65c9.755-0.2 19.508-0.499 29.262-0.758 0.319-0.009 0.64-0.014 0.958-0.041 1.521-0.131 1.953-0.674 1.534-2.216-2.261-8.33-4.508-16.665-6.856-24.971-4.223-14.935-7.346-30.115-10.285-45.34-2.576-13.343-4.679-26.766-6.382-40.239-1.463-11.572-2.675-23.177-3.429-34.833-0.92-14.212-1.747-28.424-1.399-42.664 0.54-22.088 2.291-44.06 7.346-65.653 2.814-12.019 6.525-23.74 11.737-34.945 6.971-14.988 16.237-28.263 29.279-38.668 3.258-2.599 6.718-4.9 10.271-7.07 0.678-0.414 1.349-0.86 2.562-0.684z" fill="#FF5659" p-id="2407"></path></svg>